<svg xmlns="http://www.w3.org/2000/svg">
  <symbol id="plus" viewBox="0 0 24 24"><path d="M12 5v14M5 12h14" fill="none" stroke="currentColor" stroke-width="1.8" stroke-linecap="round"/></symbol>
  <symbol id="menu" viewBox="0 0 24 24"><path d="M5 7h14M5 12h14M5 17h14" fill="none" stroke="currentColor" stroke-width="1.8" stroke-linecap="round"/></symbol>
  <symbol id="refresh" viewBox="0 0 24 24"><path d="M19 8V4l-2 2a8 8 0 1 0 2.2 8" fill="none" stroke="currentColor" stroke-width="1.7" stroke-linecap="round" stroke-linejoin="round"/></symbol>
  <symbol id="paperclip" viewBox="0 0 24 24"><path d="m8 12 6-6a3 3 0 1 1 4 4l-8 8a5 5 0 0 1-7-7l8-8" fill="none" stroke="currentColor" stroke-width="1.7" stroke-linecap="round"/></symbol>
  <symbol id="send" viewBox="0 0 24 24"><path d="m5 12 14-7-4 14-3-5-7-2Z" fill="none" stroke="currentColor" stroke-width="1.7" stroke-linecap="round" stroke-linejoin="round"/></symbol>
  <symbol id="close" viewBox="0 0 24 24"><path d="m7 7 10 10M17 7 7 17" fill="none" stroke="currentColor" stroke-width="1.8" stroke-linecap="round"/></symbol>
</svg>
